HIERARCHY
ROOT mixamorig:Hips
{
	OFFSET 0.000000 201.639420 0.000000
	CHANNELS 6 Xposition Yposition Zposition Xrotation Yrotation Zrotation
	JOINT mixamorig:Spine
	{
		OFFSET 0.006200 19.524994 -2.481800
		CHANNELS 3 Xrotation Yrotation Zrotation
		JOINT mixamorig:Spine1
		{
			OFFSET -0.000900 22.835007 -2.825400
			CHANNELS 3 Xrotation Yrotation Zrotation
			JOINT mixamorig:Spine2
			{
				OFFSET -0.020600 26.552490 -3.193300
				CHANNELS 3 Xrotation Yrotation Zrotation
				JOINT mixamorig:Neck
				{
					OFFSET -0.060000 30.701813 1.352200
					CHANNELS 3 Xrotation Yrotation Zrotation
					JOINT mixamorig:Head
					{
						OFFSET -0.087200 22.547607 3.670900
						CHANNELS 3 Xrotation Yrotation Zrotation
						JOINT mixamorig:HeadTop_End
						{
							OFFSET -0.830600 40.355194 7.893500
							CHANNELS 3 Xrotation Yrotation Zrotation
							End Site
							{
								OFFSET 0.000000 30.592346 0.000000
							}
						}
						JOINT mixamorig:RightEye
						{
							OFFSET -6.302100 18.118591 16.197100
							CHANNELS 3 Xrotation Yrotation Zrotation
							End Site
							{
								OFFSET 0.000000 30.592346 0.000000
							}
						}
						JOINT mixamorig:LeftEye
						{
							OFFSET 6.741500 18.382690 16.401899
							CHANNELS 3 Xrotation Yrotation Zrotation
							End Site
							{
								OFFSET 0.000000 30.592346 0.000000
							}
						}
					}
				}
				JOINT mixamorig:LeftShoulder
				{
					OFFSET 11.924900 18.230499 1.425400
					CHANNELS 3 Xrotation Yrotation Zrotation
					JOINT mixamorig:LeftArm
					{
						OFFSET 25.435989 -0.697632 -5.229300
						CHANNELS 3 Xrotation Yrotation Zrotation
						JOINT mixamorig:LeftForeArm
						{
							OFFSET 54.684776 0.000000 0.000000
							CHANNELS 3 Xrotation Yrotation Zrotation
							JOINT mixamorig:LeftHand
							{
								OFFSET 55.098175 0.000000 0.000000
								CHANNELS 3 Xrotation Yrotation Zrotation
								JOINT mixamorig:LeftHandMiddle1
								{
									OFFSET 23.369751 0.000000 0.000000
									CHANNELS 3 Xrotation Yrotation Zrotation
									JOINT mixamorig:LeftHandMiddle2
									{
										OFFSET 6.378677 0.000000 0.000000
										CHANNELS 3 Xrotation Yrotation Zrotation
										JOINT mixamorig:LeftHandMiddle3
										{
											OFFSET 6.148331 0.000000 0.000000
											CHANNELS 3 Xrotation Yrotation Zrotation
											JOINT mixamorig:LeftHandMiddle4
											{
												OFFSET 6.582504 0.000000 0.000000
												CHANNELS 3 Xrotation Yrotation Zrotation
												End Site
												{
													OFFSET -1.168900 6.395691 1.028606
												}
											}
										}
									}
								}
								JOINT mixamorig:LeftHandThumb1
								{
									OFFSET 7.235672 -3.848206 5.434273
									CHANNELS 3 Xrotation Yrotation Zrotation
									JOINT mixamorig:LeftHandThumb2
									{
										OFFSET 6.568451 -3.792297 3.792300
										CHANNELS 3 Xrotation Yrotation Zrotation
										JOINT mixamorig:LeftHandThumb3
										{
											OFFSET 6.063080 -3.500519 3.500518
											CHANNELS 3 Xrotation Yrotation Zrotation
											JOINT mixamorig:LeftHandThumb4
											{
												OFFSET 4.793182 -2.767334 2.767349
												CHANNELS 3 Xrotation Yrotation Zrotation
												End Site
												{
													OFFSET 0.101639 6.054260 1.275483
												}
											}
										}
									}
								}
								JOINT mixamorig:LeftHandIndex1
								{
									OFFSET 23.101074 -0.309540 4.992809
									CHANNELS 3 Xrotation Yrotation Zrotation
									JOINT mixamorig:LeftHandIndex2
									{
										OFFSET 6.226883 0.000000 0.000000
										CHANNELS 3 Xrotation Yrotation Zrotation
										JOINT mixamorig:LeftHandIndex3
										{
											OFFSET 6.094330 0.000000 0.000000
											CHANNELS 3 Xrotation Yrotation Zrotation
											JOINT mixamorig:LeftHandIndex4
											{
												OFFSET 5.482605 0.000000 0.000000
												CHANNELS 3 Xrotation Yrotation Zrotation
												End Site
												{
													OFFSET -1.427902 5.233032 0.797164
												}
											}
										}
									}
								}
								JOINT mixamorig:LeftHandRing1
								{
									OFFSET 22.299240 0.021149 -3.964172
									CHANNELS 3 Xrotation Yrotation Zrotation
									JOINT mixamorig:LeftHandRing2
									{
										OFFSET 6.321869 0.000000 0.000000
										CHANNELS 3 Xrotation Yrotation Zrotation
										JOINT mixamorig:LeftHandRing3
										{
											OFFSET 5.899796 0.000000 0.000000
											CHANNELS 3 Xrotation Yrotation Zrotation
											JOINT mixamorig:LeftHandRing4
											{
												OFFSET 6.517899 0.000000 0.000000
												CHANNELS 3 Xrotation Yrotation Zrotation
												End Site
												{
													OFFSET -1.637299 6.232208 0.980890
												}
											}
										}
									}
								}
								JOINT mixamorig:LeftHandPinky1
								{
									OFFSET 20.463791 -0.302338 -8.562233
									CHANNELS 3 Xrotation Yrotation Zrotation
									JOINT mixamorig:LeftHandPinky2
									{
										OFFSET 6.908646 0.000000 0.000000
										CHANNELS 3 Xrotation Yrotation Zrotation
										JOINT mixamorig:LeftHandPinky3
										{
											OFFSET 4.622849 0.000000 0.000000
											CHANNELS 3 Xrotation Yrotation Zrotation
											JOINT mixamorig:LeftHandPinky4
											{
												OFFSET 5.216080 0.000000 0.000000
												CHANNELS 3 Xrotation Yrotation Zrotation
												End Site
												{
													OFFSET -0.606308 5.116241 0.814926
												}
											}
										}
									}
								}
							}
						}
					}
				}
				JOINT mixamorig:RightShoulder
				{
					OFFSET -12.001300 18.284088 1.348900
					CHANNELS 3 Xrotation Yrotation Zrotation
					JOINT mixamorig:RightArm
					{
						OFFSET -25.308500 -0.751312 -5.164599
						CHANNELS 3 Xrotation Yrotation Zrotation
						JOINT mixamorig:RightForeArm
						{
							OFFSET -54.684429 0.000000 0.000000
							CHANNELS 3 Xrotation Yrotation Zrotation
							JOINT mixamorig:RightHand
							{
								OFFSET -55.150291 0.000000 0.000000
								CHANNELS 3 Xrotation Yrotation Zrotation
								JOINT mixamorig:RightHandMiddle1
								{
									OFFSET -23.317566 0.000000 0.000000
									CHANNELS 3 Xrotation Yrotation Zrotation
									JOINT mixamorig:RightHandMiddle2
									{
										OFFSET -6.378403 0.000000 0.000000
										CHANNELS 3 Xrotation Yrotation Zrotation
										JOINT mixamorig:RightHandMiddle3
										{
											OFFSET -6.148193 0.000000 0.000000
											CHANNELS 3 Xrotation Yrotation Zrotation
											JOINT mixamorig:RightHandMiddle4
											{
												OFFSET -6.583389 0.000000 0.000000
												CHANNELS 3 Xrotation Yrotation Zrotation
												End Site
												{
													OFFSET 1.171692 6.395905 1.029786
												}
											}
										}
									}
								}
								JOINT mixamorig:RightHandThumb1
								{
									OFFSET -7.190521 -3.860474 5.435846
									CHANNELS 3 Xrotation Yrotation Zrotation
									JOINT mixamorig:RightHandThumb2
									{
										OFFSET -6.567429 -3.791718 3.791708
										CHANNELS 3 Xrotation Yrotation Zrotation
										JOINT mixamorig:RightHandThumb3
										{
											OFFSET -6.062469 -3.500153 3.500166
											CHANNELS 3 Xrotation Yrotation Zrotation
											JOINT mixamorig:RightHandThumb4
											{
												OFFSET -4.792618 -2.767029 2.767022
												CHANNELS 3 Xrotation Yrotation Zrotation
												End Site
												{
													OFFSET -0.100327 6.053253 1.276754
												}
											}
										}
									}
								}
								JOINT mixamorig:RightHandIndex1
								{
									OFFSET -23.048981 -0.310791 4.992554
									CHANNELS 3 Xrotation Yrotation Zrotation
									JOINT mixamorig:RightHandIndex2
									{
										OFFSET -6.227539 0.000000 0.000000
										CHANNELS 3 Xrotation Yrotation Zrotation
										JOINT mixamorig:RightHandIndex3
										{
											OFFSET -6.095047 0.000000 0.000000
											CHANNELS 3 Xrotation Yrotation Zrotation
											JOINT mixamorig:RightHandIndex4
											{
												OFFSET -5.484772 0.000000 0.000000
												CHANNELS 3 Xrotation Yrotation Zrotation
												End Site
												{
													OFFSET 1.420593 5.237305 0.797056
												}
											}
										}
									}
								}
								JOINT mixamorig:RightHandRing1
								{
									OFFSET -22.246323 0.020569 -3.963762
									CHANNELS 3 Xrotation Yrotation Zrotation
									JOINT mixamorig:RightHandRing2
									{
										OFFSET -6.322128 0.000000 0.000000
										CHANNELS 3 Xrotation Yrotation Zrotation
										JOINT mixamorig:RightHandRing3
										{
											OFFSET -5.900024 0.000000 0.000000
											CHANNELS 3 Xrotation Yrotation Zrotation
											JOINT mixamorig:RightHandRing4
											{
												OFFSET -6.518356 0.000000 0.000000
												CHANNELS 3 Xrotation Yrotation Zrotation
												End Site
												{
													OFFSET 1.636398 6.232697 0.982186
												}
											}
										}
									}
								}
								JOINT mixamorig:RightHandPinky1
								{
									OFFSET -20.411011 -0.303314 -8.561701
									CHANNELS 3 Xrotation Yrotation Zrotation
									JOINT mixamorig:RightHandPinky2
									{
										OFFSET -6.907349 0.000000 0.000000
										CHANNELS 3 Xrotation Yrotation Zrotation
										JOINT mixamorig:RightHandPinky3
										{
											OFFSET -4.623840 0.000000 0.000000
											CHANNELS 3 Xrotation Yrotation Zrotation
											JOINT mixamorig:RightHandPinky4
											{
												OFFSET -5.218353 0.000000 0.000000
												CHANNELS 3 Xrotation Yrotation Zrotation
												End Site
												{
													OFFSET 0.602097 5.118835 0.816273
												}
											}
										}
									}
								}
							}
						}
					}
				}
			}
		}
	}
	JOINT mixamorig:LeftUpLeg
	{
		OFFSET 18.168400 -13.561905 -0.039000
		CHANNELS 3 Xrotation Yrotation Zrotation
		JOINT mixamorig:LeftLeg
		{
			OFFSET 0.577358 -80.825211 -3.695000
			CHANNELS 3 Xrotation Yrotation Zrotation
			JOINT mixamorig:LeftFoot
			{
				OFFSET -0.577356 -83.370262 -6.520700
				CHANNELS 3 Xrotation Yrotation Zrotation
				JOINT mixamorig:LeftToeBase
				{
					OFFSET 0.750401 -20.798306 25.135401
					CHANNELS 3 Xrotation Yrotation Zrotation
					JOINT mixamorig:LeftToe_End
					{
						OFFSET -0.000500 0.001200 19.917799
						CHANNELS 3 Xrotation Yrotation Zrotation
						End Site
						{
							OFFSET 0.000000 19.917805 0.000000
						}
					}
				}
			}
		}
	}
	JOINT mixamorig:RightUpLeg
	{
		OFFSET -18.162500 -13.585098 -0.041000
		CHANNELS 3 Xrotation Yrotation Zrotation
		JOINT mixamorig:RightLeg
		{
			OFFSET -0.595024 -80.945297 -3.631900
			CHANNELS 3 Xrotation Yrotation Zrotation
			JOINT mixamorig:RightFoot
			{
				OFFSET 0.595024 -83.218193 -6.561200
				CHANNELS 3 Xrotation Yrotation Zrotation
				JOINT mixamorig:RightToeBase
				{
					OFFSET -0.753601 -20.807106 25.115000
					CHANNELS 3 Xrotation Yrotation Zrotation
					JOINT mixamorig:RightToe_End
					{
						OFFSET 0.000299 0.001700 19.918200
						CHANNELS 3 Xrotation Yrotation Zrotation
						End Site
						{
							OFFSET 0.000000 19.918203 0.000000
						}
					}
				}
			}
		}
	}
}
MOTION
Frames: 4
Frame Time: 0.033333
-0.971528 158.973709 2.427597 21.738279 14.900503 2.450239 6.345750 2.415866 0.689584 12.183868 -16.386595 -0.870200 12.617082 -3.447297 -2.777084 -29.391066 -0.808352 -0.074989 -17.068740 -4.371278 1.534026 0.000000 0.000000 -0.000000 0.000000 0.000000 -0.000000 0.000000 0.000000 -0.000000 2.729669 -25.078651 4.945672 -14.416796 -19.626188 -34.774399 0.000031 -77.680001 0.000035 9.766278 -4.710355 34.301726 5.498425 8.184601 -86.683461 5.972664 5.849792 -91.192997 3.267860 5.251721 -63.761482 -0.000001 0.000004 -0.000001 -19.970042 -14.609877 5.990584 72.946748 42.817903 -79.455796 -31.850408 33.439872 48.494456 0.000002 0.000001 0.000000 6.607573 6.996578 -95.998329 4.692239 5.735538 -78.557523 6.659976 5.795066 -97.960465 -0.000002 -0.000002 -0.000002 6.115677 8.195878 -91.918036 4.998900 5.788894 -81.611082 5.162933 5.810583 -83.234427 0.000000 -0.000002 -0.000001 10.737700 10.262692 -79.427266 3.030632 5.128483 -61.139352 6.085433 5.846397 -92.299515 -0.000001 0.000002 -0.000002 22.902254 -20.322917 20.762906 23.487917 36.584095 33.553759 -0.000012 46.903592 0.000007 6.218941 2.587795 -22.368198 4.295233 -6.914164 85.931006 4.753858 -4.656180 91.190709 2.603196 -4.180659 63.804963 -0.000001 -0.000003 -0.000001 -20.728419 16.826910 -5.377609 74.094090 -43.931077 81.529284 -34.438948 -39.616238 -51.295994 -0.000002 0.000001 -0.000003 5.225292 -5.745880 95.223321 3.735938 -4.565324 78.578881 5.300238 -4.612647 97.945384 -0.000001 -0.000002 -0.000001 4.802385 -6.930773 91.150404 3.979743 -4.607729 81.626894 4.110142 -4.624989 83.247275 0.000001 0.000002 -0.000003 9.657395 -9.081620 78.694851 2.414455 -4.082627 61.185743 4.843475 -4.653431 92.295144 0.000002 -0.000002 -0.000001 -82.880869 6.546654 -1.817641 62.368247 9.754807 -2.896623 0.958929 -16.139715 1.229191 -3.439065 -0.000001 0.000000 -0.000000 0.000000 0.000000 -70.366378 17.379565 -25.539377 112.813511 4.003707 1.016498 20.810302 21.258603 -0.457020 3.423967 -0.000006 -0.000002 -0.000000 -0.000000 0.000000 
1.417317 153.676895 30.164177 28.787639 12.756336 -2.449471 5.874343 2.412230 1.465386 11.158723 -16.012554 -0.765161 10.785072 -8.057805 -4.039176 -25.545425 -0.110036 -0.481010 -20.308838 -1.871884 2.859669 0.000001 0.000000 0.000001 0.000001 0.000000 0.000001 0.000001 0.000000 0.000001 2.662167 -21.815209 5.862510 -19.623501 -15.335646 -25.531734 0.000418 -86.168376 0.000413 7.144552 5.939964 26.046612 4.519564 8.036313 -78.661124 5.056579 5.797051 -82.182646 2.724645 4.948203 -57.656092 -0.000004 0.000004 0.000000 -18.010379 -13.362434 6.590462 69.785894 45.577828 -70.333231 -27.219721 29.897606 44.243148 0.000001 0.000002 -0.000001 4.562034 7.644911 -85.278231 3.941137 5.531576 -70.917287 5.649916 5.847608 -88.026570 -0.000000 0.000003 -0.000002 5.422155 8.178097 -85.114477 4.251462 5.628907 -74.107853 4.371714 5.661584 -75.330313 0.000000 0.000002 -0.000001 10.905950 11.617264 -74.436078 2.653799 4.902790 -56.831060 5.209756 5.815953 -83.696448 0.000000 0.000001 0.000001 17.554011 -9.272929 23.843034 23.067482 35.554355 29.958320 0.000002 45.615883 0.000014 18.670351 5.173244 -24.973064 4.518932 -6.928471 86.717202 4.909187 -4.650370 93.105211 2.644577 -4.200707 64.371432 0.000001 0.000002 0.000000 -21.791435 16.965406 -5.194489 75.125838 -43.281546 83.411575 -35.286861 -40.186012 -52.238585 -0.000002 -0.000002 0.000000 5.701826 -5.651020 96.881001 3.849566 -4.586744 80.003208 5.458624 -4.587833 99.920067 0.000002 0.000000 -0.000001 4.887023 -6.928322 92.192534 4.018188 -4.613241 82.105301 4.211253 -4.635793 84.499699 0.000002 0.000000 0.000004 9.570420 -8.967671 79.154509 2.445545 -4.099570 61.621632 4.936053 -4.648804 93.436858 0.000000 0.000000 0.000001 -89.619698 1.694502 2.318024 80.430211 7.839537 -3.088975 -18.142898 -15.580657 -3.767999 -3.484166 -0.000005 0.000000 -0.000000 0.000001 0.000000 -98.971838 12.876063 -17.069954 103.839113 -1.165648 0.024551 31.964350 24.276750 -5.918864 -12.802545 0.869612 -5.927606 -0.000001 0.000001 -0.000002 
2.937136 146.770752 59.213161 35.543847 9.672717 -7.011710 5.327387 2.352871 2.222023 10.331069 -15.172519 -0.690809 8.442460 -11.066699 -5.867931 -21.265437 0.794485 -1.437981 -24.245669 0.935971 4.792968 -0.000001 -0.000000 -0.000001 -0.000001 -0.000000 -0.000001 -0.000001 -0.000000 -0.000001 2.316347 -17.990542 6.768034 -28.695308 -16.520418 -15.873472 0.001833 -91.156408 0.002001 4.416083 14.935532 15.131447 3.607603 7.741487 -70.641361 4.160261 5.602253 -73.176044 2.217143 4.588875 -51.557167 -0.000001 -0.000002 0.000000 -16.104329 -12.178483 6.989317 66.495074 48.851586 -60.635039 -22.305106 25.402785 41.204182 0.000001 0.000001 0.000000 2.582479 7.471772 -73.682476 3.224210 5.230086 -63.283410 4.645980 5.726028 -78.094190 -0.000000 -0.000001 -0.000002 4.830668 8.097754 -79.260992 3.531670 5.373193 -66.610006 3.608838 5.405752 -67.431726 0.000001 0.000002 0.000002 11.651901 13.710592 -70.674932 2.344039 4.686488 -53.126431 4.350272 5.655981 -75.112799 -0.000001 -0.000000 0.000001 8.979668 -0.185959 23.811228 20.638923 36.344823 31.371103 0.000003 48.342020 -0.000013 17.303934 4.290227 -34.613920 4.935077 -6.941223 88.177380 5.196763 -4.625867 96.660550 2.721984 -4.236865 65.423493 0.000002 0.000001 0.000004 -23.775781 17.224986 -4.826525 76.448415 -41.392791 85.154216 -36.199856 -42.316266 -53.008654 0.000001 -0.000002 0.000001 6.571536 -5.410349 99.955946 4.061887 -4.619017 82.648602 5.750104 -4.527378 103.586970 -0.000001 -0.000002 -0.000003 5.044055 -6.919716 94.127930 4.089744 -4.622547 82.993806 4.399557 -4.650027 86.825652 0.000001 -0.000003 -0.000001 9.405000 -8.760926 80.008119 2.503634 -4.130333 62.431201 5.107672 -4.635374 95.557188 0.000000 -0.000001 -0.000001 -90.313638 -4.388658 6.482005 92.666597 5.894567 -2.949262 -36.981902 -13.221626 -9.082648 -3.553873 0.000003 0.000002 -0.000000 -0.000001 0.000000 -114.653878 5.178087 -9.600480 92.153315 3.158674 -2.292616 15.913176 24.550422 1.488323 -9.548246 0.242244 -4.439413 -0.000000 0.000002 -0.000002 
3.630547 142.033539 88.797485 42.137944 6.475322 -10.886534 4.762476 1.900585 2.857130 9.655010 -13.916352 -0.662333 6.555911 -12.634516 -6.648672 -16.811558 1.766660 -2.579511 -28.489236 3.844026 6.980584 0.000001 0.000000 -0.000001 0.000001 0.000000 -0.000001 0.000001 0.000000 -0.000001 1.792561 -13.996958 7.738211 -40.037596 -23.937574 -6.771240 -0.001141 -91.051449 -0.001391 0.442640 21.206639 3.952484 2.779609 7.318551 -62.629235 3.306010 5.270288 -64.177359 1.751055 4.177888 -45.464758 -0.000000 0.000000 -0.000000 -14.246453 -11.075390 7.198141 62.513054 51.940399 -50.051285 -17.337050 20.477751 39.310778 0.000002 -0.000002 -0.000000 1.072164 6.371612 -61.633564 2.554024 4.836354 -55.656070 3.678857 5.434199 -68.172767 0.000000 0.000000 -0.000001 4.303756 7.973518 -73.951886 2.851866 5.026205 -59.119515 2.888874 5.048066 -59.541115 -0.000001 -0.000003 0.000001 12.742976 16.224647 -67.624788 2.075723 4.473339 -49.767207 3.525593 5.370583 -66.545235 0.000000 -0.000001 -0.000000 2.267081 5.303351 19.505183 17.419504 31.005111 35.000007 0.000033 65.165926 -0.000027 14.373489 2.645283 -37.883552 5.159327 -6.940626 88.963665 5.350827 -4.605355 98.574834 2.763948 -4.255763 65.990050 0.000005 -0.000001 -0.000001 -24.849721 17.365522 -4.613330 76.977373 -40.395938 85.949837 -36.692005 -43.473830 -53.428294 -0.000001 -0.000000 -0.000000 7.029749 -5.246523 101.609138 4.176789 -4.632338 84.073195 5.905271 -4.487153 105.561161 -0.000000 0.000001 0.000000 5.128455 -6.912893 95.170032 4.128317 -4.627109 83.472234 4.501147 -4.654530 88.078151 -0.000000 0.000001 0.000002 9.313828 -8.652238 80.467722 2.535090 -4.146539 62.867137 5.199818 -4.625507 96.698854 0.000003 -0.000000 0.000002 -84.312504 -8.902813 11.733355 95.983194 3.888337 -2.712072 -51.350674 -10.295579 -12.267258 -4.896971 0.000002 0.000001 0.000000 0.000000 0.000000 -122.653327 -1.616722 -4.025415 78.061897 9.267123 -4.738763 -8.493040 20.604792 3.557577 -4.216214 0.000003 0.000001 -0.000000 -0.000002 -0.000000 
